# xmcd
#
# Track frame offsets: 
#        182
#        18622
#        29642
#        49255
#        77150
#        94357
#        113647
#        131727
#        159315
#        177460
#        200120
#        216945
#        233995
#        249287
#
# Disc length: 3499 seconds
#
# Revision: 2
# Processed by: cddbd v1.4PL0 Copyright (c) Steve Scherf et al.
# Submitted via: ExactAudioCopy v0.90b4
#
DISCID=ca0da90e
DTITLE=Martyna Jakubowicz - Total
DYEAR=1900
DGENRE=
TTITLE0=Blues o zuzytych butach i szczesliwym koncu drogi
TTITLE1=Kretyni i osly
TTITLE2=Albo cacy, albo lili
TTITLE3=Ko³ysanka dla Misiakow (Chce ci dac troche wiary w cud)
TTITLE4=Mlode wino
TTITLE5=Ludzie bladza
TTITLE6=Gdzies miedzy
TTITLE7=Wschodnia wioska
TTITLE8=Goraca sien
TTITLE9=W domach z betonu
TTITLE10=Stlucz szybe, wyrzuc klucz
TTITLE11=Kiedy bede stara kobieta
TTITLE12=Wrozba nie sluzba
TTITLE13=Ktora to faza
EXTD=
EXTT0=
EXTT1=
EXTT2=
EXTT3=
EXTT4=
EXTT5=
EXTT6=
EXTT7=
EXTT8=
EXTT9=
EXTT10=
EXTT11=
EXTT12=
EXTT13=
PLAYORDER=
